<svg xmlns="http://www.w3.org/2000/svg" viewBox="0 0 533.5 544.3">
  <path fill="#4285F4" d="M533.5 278.4c0-17.4-1.5-34.1-4.4-50.4H272v95.3h146.9c-6.3 34-25.2 62.7-53.8 82v68.2h86.9c51.1-47 81.5-116.2 81.5-195.1z"/>
  <path fill="#34A853" d="M272 544.3c72.4 0 133.1-23.9 177.5-64.9l-86.9-68.2c-24.1 16.2-55 25.8-90.6 25.8-69.7 0-128.8-47-150-110.1H33v69.1c44.7 88.5 136.8 148.3 239 148.3z"/>
  <path fill="#FBBC04" d="M122 326.9c-10.6-31.8-10.6-66.9 0-98.7v-69.1H33c-43.5 85-43.5 182.9 0 267.9l89-69.1z"/>
  <path fill="#EA4335" d="M272 107.8c39.4 0 75 13.6 103.1 40.3l77.2-77.2C405 24.6 344.3 0 272 0 169.8 0 77.7 59.8 33 148.3l89 69c21.2-63.1 80.3-109.5 150-109.5z"/>
</svg>
